<svg width="60" height="76" viewBox="0 0 60 76" fill="none" xmlns="http://www.w3.org/2000/svg">
<path d="M9.49831 0.0145264L0.154785 9.35806H7.14537C8.44487 9.35806 9.49831 8.30461 9.49831 7.00511V0.0145264Z" fill="#A1A1A1"/>
<path d="M13.9102 0V11.4169C13.9102 12.7164 12.8568 13.7699 11.5573 13.7699H0.140381V61.8821C0.140381 63.1816 1.19383 64.235 2.49332 64.235H46.4476C47.7471 64.235 48.8005 63.1816 48.8005 61.8821V2.35294C48.8005 1.05345 47.7471 0 46.4476 0H13.9102ZM37.5082 42.6232H11.4327C10.2145 42.6232 9.22685 41.6356 9.22685 40.4174C9.22685 39.1991 10.2145 38.2115 11.4327 38.2115H37.5082C38.7265 38.2115 39.7141 39.1991 39.7141 40.4174C39.7141 41.6356 38.7265 42.6232 37.5082 42.6232ZM37.5082 33.2506H11.4327C10.2145 33.2506 9.22685 32.263 9.22685 31.0447C9.22685 29.8264 10.2145 28.8388 11.4327 28.8388H37.5082C38.7265 28.8388 39.7141 29.8264 39.7141 31.0447C39.7141 32.263 38.7265 33.2506 37.5082 33.2506ZM37.5082 23.8778H11.4327C10.2145 23.8778 9.22685 22.8902 9.22685 21.6719C9.22685 20.4536 10.2145 19.466 11.4327 19.466H37.5082C38.7265 19.466 39.7141 20.4536 39.7141 21.6719C39.7141 22.8902 38.7265 23.8778 37.5082 23.8778Z" fill="#A1A1A1"/>
<path d="M53.2121 11.0591V66.2938C53.2121 67.5933 52.1587 68.6468 50.8592 68.6468H11.1995V72.9412C11.1995 74.2407 12.2529 75.2941 13.5524 75.2941H57.5065C58.806 75.2941 59.8595 74.2407 59.8595 72.9412V13.412C59.8595 12.1125 58.806 11.0591 57.5065 11.0591H53.2121Z" fill="#A1A1A1"/>
</svg>
