<svg width="60" height="60" viewBox="0 0 60 60" fill="none" xmlns="http://www.w3.org/2000/svg">
<path d="M22.0968 15.813H0V58.125C0 59.1605 0.839466 60 1.875 60H58.125C59.1605 60 60 59.1605 60 58.125V24.8438H29.9436C29.3052 24.8438 28.7107 24.5189 28.3658 23.9817L23.6746 16.675C23.3297 16.1378 22.7352 15.813 22.0968 15.813ZM26.25 52.9102H8.90625C7.87072 52.9102 7.03125 52.0707 7.03125 51.0352V37.207C7.03125 36.1715 7.87072 35.332 8.90625 35.332H9.66797V32.6953C9.66797 28.3337 13.2166 24.7852 17.5781 24.7852C21.9397 24.7852 25.4883 28.3337 25.4883 32.6953V35.332H26.25C27.2855 35.332 28.125 36.1715 28.125 37.207V51.0352C28.125 52.0707 27.2855 52.9102 26.25 52.9102ZM35.3906 38.9062H49.4531C50.4239 38.9062 51.2109 39.6932 51.2109 40.6641C51.2109 41.6349 50.4239 42.4219 49.4531 42.4219H35.3906C34.4198 42.4219 33.6328 41.6349 33.6328 40.6641C33.6328 39.6932 34.4198 38.9062 35.3906 38.9062ZM35.3906 45.9375H49.4531C50.4239 45.9375 51.2109 46.7245 51.2109 47.6953C51.2109 48.6661 50.4239 49.4531 49.4531 49.4531H35.3906C34.4198 49.4531 33.6328 48.6661 33.6328 47.6953C33.6328 46.7245 34.4198 45.9375 35.3906 45.9375Z" fill="#A1A1A1"/>
<path d="M12.4219 49.3945H22.7344C23.7699 49.3945 24.6094 48.5551 24.6094 47.5195V40.7227C24.6094 39.6871 23.7699 38.8477 22.7344 38.8477H12.4219C11.3863 38.8477 10.5469 39.6871 10.5469 40.7227V47.5195C10.5469 48.5551 11.3863 49.3945 12.4219 49.3945ZM17.5781 42.3633C18.5489 42.3633 19.3359 43.1503 19.3359 44.1211C19.3359 45.0919 18.5489 45.8789 17.5781 45.8789C16.6073 45.8789 15.8203 45.0919 15.8203 44.1211C15.8203 43.1503 16.6073 42.3633 17.5781 42.3633Z" fill="#A1A1A1"/>
<path d="M26.8372 7.90649H6.61877C5.58324 7.90649 4.74377 8.74596 4.74377 9.78149V12.2974H24.2583C24.8967 12.2974 25.4913 12.6222 25.8361 13.1594L30.5273 20.4661C30.8722 21.0033 31.4667 21.3281 32.1051 21.3281H60V18.8672C60 17.8317 59.1605 16.9922 58.125 16.9922H34.6907C34.0505 16.9922 33.4545 16.6655 33.1101 16.1258L28.4178 8.77284C28.0734 8.23315 27.4775 7.90649 26.8372 7.90649Z" fill="#A1A1A1"/>
<path d="M37.8445 8.14554L33.2809 0.877894C32.9378 0.331598 32.3381 0 31.693 0H11.363C10.3275 0 9.48804 0.839466 9.48804 1.875V4.39087H30.0265L35.8246 13.4766H60V10.8984C60 9.8629 59.1605 9.02344 58.125 9.02344H39.4324C38.7874 9.02344 38.1876 8.69184 37.8445 8.14554Z" fill="#A1A1A1"/>
<path d="M21.9727 32.6953C21.9727 30.2719 20.0015 28.3008 17.5781 28.3008C15.1547 28.3008 13.1836 30.2719 13.1836 32.6953V35.332H21.9727V32.6953Z" fill="#A1A1A1"/>
</svg>
