<svg width="60" height="60" viewBox="0 0 60 60" fill="none" xmlns="http://www.w3.org/2000/svg">
<path d="M52.9688 14.1797H58.125C59.1605 14.1797 60 15.0192 60 16.0547V21.2109H52.9688V14.1797Z" fill="#A1A1A1"/>
<path d="M46.9672 10.664L38.7891 2.48584V8.789C38.7891 9.82454 39.6285 10.664 40.6641 10.664H46.9672Z" fill="#A1A1A1"/>
<path d="M10.5469 1.875V14.1797H22.9688C25.1195 14.1797 27.2703 14.1797 29.4211 14.1797C30.4566 14.1797 31.2961 15.0192 31.2961 16.0547V21.2109H49.4531V16.0547C49.4531 15.0192 48.6137 14.1797 47.5781 14.1797H37.1484C36.1129 14.1797 35.2734 13.3402 35.2734 12.3047V1.875C35.2734 0.839466 34.434 0 33.3984 0H12.4219C11.3863 0 10.5469 0.839466 10.5469 1.875Z" fill="#A1A1A1"/>
<path d="M58.125 24.7266H30.1172C29.0817 24.7266 28.2422 23.8871 28.2422 22.8516V19.5703C28.2422 18.5348 27.4027 17.6953 26.3672 17.6953C25.2344 17.6953 24.1016 17.6953 22.9688 17.6953H1.875C0.839466 17.6953 0 18.5348 0 19.5703V58.125C0 59.1605 0.839466 60 1.875 60H58.125C59.1605 60 60 59.1605 60 58.125V26.6016C60 25.566 59.1605 24.7266 58.125 24.7266Z" fill="#A1A1A1"/>
</svg>
